<?xml version="1.0" encoding="utf-8" standalone="no"?>
<!DOCTYPE svg PUBLIC "-//W3C//DTD SVG 1.1//EN"
  "http://www.w3.org/Graphics/SVG/1.1/DTD/svg11.dtd">
<svg height="432pt" version="1.1" viewBox="0 0 432 432" width="432pt" xmlns="http://www.w3.org/2000/svg" xmlns:xlink="http://www.w3.org/1999/xlink">
 <metadata>
  <rdf:RDF xmlns:cc="http://creativecommons.org/ns#" xmlns:dc="http://purl.org/dc/elements/1.1/" xmlns:rdf="http://www.w3.org/1999/02/22-rdf-syntax-ns#">
   <cc:Work>
    <dc:type rdf:resource="http://purl.org/dc/dcmitype/StillImage"/>
    <dc:date>2022-10-03T15:15:04.567806</dc:date>
    <dc:format>image/svg+xml</dc:format>
    <dc:creator>
     <cc:Agent>
      <dc:title>Matplotlib v3.4.3, https://matplotlib.org/</dc:title>
     </cc:Agent>
    </dc:creator>
   </cc:Work>
  </rdf:RDF>
 </metadata>
 <defs>
  <style type="text/css">*{stroke-linecap:butt;stroke-linejoin:round;}</style>
 </defs>
 <g id="figure_1">
  <g id="patch_1">
   <path d="M 0 432 
L 432 432 
L 432 0 
L 0 0 
z
" style="fill:none;"/>
  </g>
  <g id="axes_1">
   <g id="patch_2">
    <path d="M 60.175 390.2 
L 421.2 390.2 
L 421.2 26.8 
L 60.175 26.8 
z
" style="fill:#ffffff;"/>
   </g>
   <g id="matplotlib.axis_1">
    <g id="xtick_1">
     <g id="line2d_1">
      <defs>
       <path d="M 0 0 
L 0 3.5 
" id="mfe94f4760d" style="stroke:#000000;stroke-width:0.8;"/>
      </defs>
      <g>
       <use style="stroke:#000000;stroke-width:0.8;" x="67.592992" xlink:href="#mfe94f4760d" y="390.2"/>
      </g>
     </g>
     <g id="text_1">
      <!-- 0 -->
      <g transform="translate(64.411742 404.798438)scale(0.1 -0.1)">
       <defs>
        <path d="M 2034 4250 
Q 1547 4250 1301 3770 
Q 1056 3291 1056 2328 
Q 1056 1369 1301 889 
Q 1547 409 2034 409 
Q 2525 409 2770 889 
Q 3016 1369 3016 2328 
Q 3016 3291 2770 3770 
Q 2525 4250 2034 4250 
z
M 2034 4750 
Q 2819 4750 3233 4129 
Q 3647 3509 3647 2328 
Q 3647 1150 3233 529 
Q 2819 -91 2034 -91 
Q 1250 -91 836 529 
Q 422 1150 422 2328 
Q 422 3509 836 4129 
Q 1250 4750 2034 4750 
z
" id="DejaVuSans-30" transform="scale(0.015625)"/>
       </defs>
       <use xlink:href="#DejaVuSans-30"/>
      </g>
     </g>
    </g>
    <g id="xtick_2">
     <g id="line2d_2">
      <g>
       <use style="stroke:#000000;stroke-width:0.8;" x="115.808732" xlink:href="#mfe94f4760d" y="390.2"/>
      </g>
     </g>
     <g id="text_2">
      <!-- 1000 -->
      <g transform="translate(103.083732 404.798438)scale(0.1 -0.1)">
       <defs>
        <path d="M 794 531 
L 1825 531 
L 1825 4091 
L 703 3866 
L 703 4441 
L 1819 4666 
L 2450 4666 
L 2450 531 
L 3481 531 
L 3481 0 
L 794 0 
L 794 531 
z
" id="DejaVuSans-31" transform="scale(0.015625)"/>
       </defs>
       <use xlink:href="#DejaVuSans-31"/>
       <use x="63.623047" xlink:href="#DejaVuSans-30"/>
       <use x="127.246094" xlink:href="#DejaVuSans-30"/>
       <use x="190.869141" xlink:href="#DejaVuSans-30"/>
      </g>
     </g>
    </g>
    <g id="xtick_3">
     <g id="line2d_3">
      <g>
       <use style="stroke:#000000;stroke-width:0.8;" x="164.024473" xlink:href="#mfe94f4760d" y="390.2"/>
      </g>
     </g>
     <g id="text_3">
      <!-- 2000 -->
      <g transform="translate(151.299473 404.798438)scale(0.1 -0.1)">
       <defs>
        <path d="M 1228 531 
L 3431 531 
L 3431 0 
L 469 0 
L 469 531 
Q 828 903 1448 1529 
Q 2069 2156 2228 2338 
Q 2531 2678 2651 2914 
Q 2772 3150 2772 3378 
Q 2772 3750 2511 3984 
Q 2250 4219 1831 4219 
Q 1534 4219 1204 4116 
Q 875 4013 500 3803 
L 500 4441 
Q 881 4594 1212 4672 
Q 1544 4750 1819 4750 
Q 2544 4750 2975 4387 
Q 3406 4025 3406 3419 
Q 3406 3131 3298 2873 
Q 3191 2616 2906 2266 
Q 2828 2175 2409 1742 
Q 1991 1309 1228 531 
z
" id="DejaVuSans-32" transform="scale(0.015625)"/>
       </defs>
       <use xlink:href="#DejaVuSans-32"/>
       <use x="63.623047" xlink:href="#DejaVuSans-30"/>
       <use x="127.246094" xlink:href="#DejaVuSans-30"/>
       <use x="190.869141" xlink:href="#DejaVuSans-30"/>
      </g>
     </g>
    </g>
    <g id="xtick_4">
     <g id="line2d_4">
      <g>
       <use style="stroke:#000000;stroke-width:0.8;" x="212.240213" xlink:href="#mfe94f4760d" y="390.2"/>
      </g>
     </g>
     <g id="text_4">
      <!-- 3000 -->
      <g transform="translate(199.515213 404.798438)scale(0.1 -0.1)">
       <defs>
        <path d="M 2597 2516 
Q 3050 2419 3304 2112 
Q 3559 1806 3559 1356 
Q 3559 666 3084 287 
Q 2609 -91 1734 -91 
Q 1441 -91 1130 -33 
Q 819 25 488 141 
L 488 750 
Q 750 597 1062 519 
Q 1375 441 1716 441 
Q 2309 441 2620 675 
Q 2931 909 2931 1356 
Q 2931 1769 2642 2001 
Q 2353 2234 1838 2234 
L 1294 2234 
L 1294 2753 
L 1863 2753 
Q 2328 2753 2575 2939 
Q 2822 3125 2822 3475 
Q 2822 3834 2567 4026 
Q 2313 4219 1838 4219 
Q 1578 4219 1281 4162 
Q 984 4106 628 3988 
L 628 4550 
Q 988 4650 1302 4700 
Q 1616 4750 1894 4750 
Q 2613 4750 3031 4423 
Q 3450 4097 3450 3541 
Q 3450 3153 3228 2886 
Q 3006 2619 2597 2516 
z
" id="DejaVuSans-33" transform="scale(0.015625)"/>
       </defs>
       <use xlink:href="#DejaVuSans-33"/>
       <use x="63.623047" xlink:href="#DejaVuSans-30"/>
       <use x="127.246094" xlink:href="#DejaVuSans-30"/>
       <use x="190.869141" xlink:href="#DejaVuSans-30"/>
      </g>
     </g>
    </g>
    <g id="xtick_5">
     <g id="line2d_5">
      <g>
       <use style="stroke:#000000;stroke-width:0.8;" x="260.455954" xlink:href="#mfe94f4760d" y="390.2"/>
      </g>
     </g>
     <g id="text_5">
      <!-- 4000 -->
      <g transform="translate(247.730954 404.798438)scale(0.1 -0.1)">
       <defs>
        <path d="M 2419 4116 
L 825 1625 
L 2419 1625 
L 2419 4116 
z
M 2253 4666 
L 3047 4666 
L 3047 1625 
L 3713 1625 
L 3713 1100 
L 3047 1100 
L 3047 0 
L 2419 0 
L 2419 1100 
L 313 1100 
L 313 1709 
L 2253 4666 
z
" id="DejaVuSans-34" transform="scale(0.015625)"/>
       </defs>
       <use xlink:href="#DejaVuSans-34"/>
       <use x="63.623047" xlink:href="#DejaVuSans-30"/>
       <use x="127.246094" xlink:href="#DejaVuSans-30"/>
       <use x="190.869141" xlink:href="#DejaVuSans-30"/>
      </g>
     </g>
    </g>
    <g id="xtick_6">
     <g id="line2d_6">
      <g>
       <use style="stroke:#000000;stroke-width:0.8;" x="308.671694" xlink:href="#mfe94f4760d" y="390.2"/>
      </g>
     </g>
     <g id="text_6">
      <!-- 5000 -->
      <g transform="translate(295.946694 404.798438)scale(0.1 -0.1)">
       <defs>
        <path d="M 691 4666 
L 3169 4666 
L 3169 4134 
L 1269 4134 
L 1269 2991 
Q 1406 3038 1543 3061 
Q 1681 3084 1819 3084 
Q 2600 3084 3056 2656 
Q 3513 2228 3513 1497 
Q 3513 744 3044 326 
Q 2575 -91 1722 -91 
Q 1428 -91 1123 -41 
Q 819 9 494 109 
L 494 744 
Q 775 591 1075 516 
Q 1375 441 1709 441 
Q 2250 441 2565 725 
Q 2881 1009 2881 1497 
Q 2881 1984 2565 2268 
Q 2250 2553 1709 2553 
Q 1456 2553 1204 2497 
Q 953 2441 691 2322 
L 691 4666 
z
" id="DejaVuSans-35" transform="scale(0.015625)"/>
       </defs>
       <use xlink:href="#DejaVuSans-35"/>
       <use x="63.623047" xlink:href="#DejaVuSans-30"/>
       <use x="127.246094" xlink:href="#DejaVuSans-30"/>
       <use x="190.869141" xlink:href="#DejaVuSans-30"/>
      </g>
     </g>
    </g>
    <g id="xtick_7">
     <g id="line2d_7">
      <g>
       <use style="stroke:#000000;stroke-width:0.8;" x="356.887435" xlink:href="#mfe94f4760d" y="390.2"/>
      </g>
     </g>
     <g id="text_7">
      <!-- 6000 -->
      <g transform="translate(344.162435 404.798438)scale(0.1 -0.1)">
       <defs>
        <path d="M 2113 2584 
Q 1688 2584 1439 2293 
Q 1191 2003 1191 1497 
Q 1191 994 1439 701 
Q 1688 409 2113 409 
Q 2538 409 2786 701 
Q 3034 994 3034 1497 
Q 3034 2003 2786 2293 
Q 2538 2584 2113 2584 
z
M 3366 4563 
L 3366 3988 
Q 3128 4100 2886 4159 
Q 2644 4219 2406 4219 
Q 1781 4219 1451 3797 
Q 1122 3375 1075 2522 
Q 1259 2794 1537 2939 
Q 1816 3084 2150 3084 
Q 2853 3084 3261 2657 
Q 3669 2231 3669 1497 
Q 3669 778 3244 343 
Q 2819 -91 2113 -91 
Q 1303 -91 875 529 
Q 447 1150 447 2328 
Q 447 3434 972 4092 
Q 1497 4750 2381 4750 
Q 2619 4750 2861 4703 
Q 3103 4656 3366 4563 
z
" id="DejaVuSans-36" transform="scale(0.015625)"/>
       </defs>
       <use xlink:href="#DejaVuSans-36"/>
       <use x="63.623047" xlink:href="#DejaVuSans-30"/>
       <use x="127.246094" xlink:href="#DejaVuSans-30"/>
       <use x="190.869141" xlink:href="#DejaVuSans-30"/>
      </g>
     </g>
    </g>
    <g id="xtick_8">
     <g id="line2d_8">
      <g>
       <use style="stroke:#000000;stroke-width:0.8;" x="405.103175" xlink:href="#mfe94f4760d" y="390.2"/>
      </g>
     </g>
     <g id="text_8">
      <!-- 7000 -->
      <g transform="translate(392.378175 404.798438)scale(0.1 -0.1)">
       <defs>
        <path d="M 525 4666 
L 3525 4666 
L 3525 4397 
L 1831 0 
L 1172 0 
L 2766 4134 
L 525 4134 
L 525 4666 
z
" id="DejaVuSans-37" transform="scale(0.015625)"/>
       </defs>
       <use xlink:href="#DejaVuSans-37"/>
       <use x="63.623047" xlink:href="#DejaVuSans-30"/>
       <use x="127.246094" xlink:href="#DejaVuSans-30"/>
       <use x="190.869141" xlink:href="#DejaVuSans-30"/>
      </g>
     </g>
    </g>
    <g id="text_9">
     <!-- segundos -->
     <g transform="translate(216.65625 418.476562)scale(0.1 -0.1)">
      <defs>
       <path d="M 2834 3397 
L 2834 2853 
Q 2591 2978 2328 3040 
Q 2066 3103 1784 3103 
Q 1356 3103 1142 2972 
Q 928 2841 928 2578 
Q 928 2378 1081 2264 
Q 1234 2150 1697 2047 
L 1894 2003 
Q 2506 1872 2764 1633 
Q 3022 1394 3022 966 
Q 3022 478 2636 193 
Q 2250 -91 1575 -91 
Q 1294 -91 989 -36 
Q 684 19 347 128 
L 347 722 
Q 666 556 975 473 
Q 1284 391 1588 391 
Q 1994 391 2212 530 
Q 2431 669 2431 922 
Q 2431 1156 2273 1281 
Q 2116 1406 1581 1522 
L 1381 1569 
Q 847 1681 609 1914 
Q 372 2147 372 2553 
Q 372 3047 722 3315 
Q 1072 3584 1716 3584 
Q 2034 3584 2315 3537 
Q 2597 3491 2834 3397 
z
" id="DejaVuSans-73" transform="scale(0.015625)"/>
       <path d="M 3597 1894 
L 3597 1613 
L 953 1613 
Q 991 1019 1311 708 
Q 1631 397 2203 397 
Q 2534 397 2845 478 
Q 3156 559 3463 722 
L 3463 178 
Q 3153 47 2828 -22 
Q 2503 -91 2169 -91 
Q 1331 -91 842 396 
Q 353 884 353 1716 
Q 353 2575 817 3079 
Q 1281 3584 2069 3584 
Q 2775 3584 3186 3129 
Q 3597 2675 3597 1894 
z
M 3022 2063 
Q 3016 2534 2758 2815 
Q 2500 3097 2075 3097 
Q 1594 3097 1305 2825 
Q 1016 2553 972 2059 
L 3022 2063 
z
" id="DejaVuSans-65" transform="scale(0.015625)"/>
       <path d="M 2906 1791 
Q 2906 2416 2648 2759 
Q 2391 3103 1925 3103 
Q 1463 3103 1205 2759 
Q 947 2416 947 1791 
Q 947 1169 1205 825 
Q 1463 481 1925 481 
Q 2391 481 2648 825 
Q 2906 1169 2906 1791 
z
M 3481 434 
Q 3481 -459 3084 -895 
Q 2688 -1331 1869 -1331 
Q 1566 -1331 1297 -1286 
Q 1028 -1241 775 -1147 
L 775 -588 
Q 1028 -725 1275 -790 
Q 1522 -856 1778 -856 
Q 2344 -856 2625 -561 
Q 2906 -266 2906 331 
L 2906 616 
Q 2728 306 2450 153 
Q 2172 0 1784 0 
Q 1141 0 747 490 
Q 353 981 353 1791 
Q 353 2603 747 3093 
Q 1141 3584 1784 3584 
Q 2172 3584 2450 3431 
Q 2728 3278 2906 2969 
L 2906 3500 
L 3481 3500 
L 3481 434 
z
" id="DejaVuSans-67" transform="scale(0.015625)"/>
       <path d="M 544 1381 
L 544 3500 
L 1119 3500 
L 1119 1403 
Q 1119 906 1312 657 
Q 1506 409 1894 409 
Q 2359 409 2629 706 
Q 2900 1003 2900 1516 
L 2900 3500 
L 3475 3500 
L 3475 0 
L 2900 0 
L 2900 538 
Q 2691 219 2414 64 
Q 2138 -91 1772 -91 
Q 1169 -91 856 284 
Q 544 659 544 1381 
z
M 1991 3584 
L 1991 3584 
z
" id="DejaVuSans-75" transform="scale(0.015625)"/>
       <path d="M 3513 2113 
L 3513 0 
L 2938 0 
L 2938 2094 
Q 2938 2591 2744 2837 
Q 2550 3084 2163 3084 
Q 1697 3084 1428 2787 
Q 1159 2491 1159 1978 
L 1159 0 
L 581 0 
L 581 3500 
L 1159 3500 
L 1159 2956 
Q 1366 3272 1645 3428 
Q 1925 3584 2291 3584 
Q 2894 3584 3203 3211 
Q 3513 2838 3513 2113 
z
" id="DejaVuSans-6e" transform="scale(0.015625)"/>
       <path d="M 2906 2969 
L 2906 4863 
L 3481 4863 
L 3481 0 
L 2906 0 
L 2906 525 
Q 2725 213 2448 61 
Q 2172 -91 1784 -91 
Q 1150 -91 751 415 
Q 353 922 353 1747 
Q 353 2572 751 3078 
Q 1150 3584 1784 3584 
Q 2172 3584 2448 3432 
Q 2725 3281 2906 2969 
z
M 947 1747 
Q 947 1113 1208 752 
Q 1469 391 1925 391 
Q 2381 391 2643 752 
Q 2906 1113 2906 1747 
Q 2906 2381 2643 2742 
Q 2381 3103 1925 3103 
Q 1469 3103 1208 2742 
Q 947 2381 947 1747 
z
" id="DejaVuSans-64" transform="scale(0.015625)"/>
       <path d="M 1959 3097 
Q 1497 3097 1228 2736 
Q 959 2375 959 1747 
Q 959 1119 1226 758 
Q 1494 397 1959 397 
Q 2419 397 2687 759 
Q 2956 1122 2956 1747 
Q 2956 2369 2687 2733 
Q 2419 3097 1959 3097 
z
M 1959 3584 
Q 2709 3584 3137 3096 
Q 3566 2609 3566 1747 
Q 3566 888 3137 398 
Q 2709 -91 1959 -91 
Q 1206 -91 779 398 
Q 353 888 353 1747 
Q 353 2609 779 3096 
Q 1206 3584 1959 3584 
z
" id="DejaVuSans-6f" transform="scale(0.015625)"/>
      </defs>
      <use xlink:href="#DejaVuSans-73"/>
      <use x="52.099609" xlink:href="#DejaVuSans-65"/>
      <use x="113.623047" xlink:href="#DejaVuSans-67"/>
      <use x="177.099609" xlink:href="#DejaVuSans-75"/>
      <use x="240.478516" xlink:href="#DejaVuSans-6e"/>
      <use x="303.857422" xlink:href="#DejaVuSans-64"/>
      <use x="367.333984" xlink:href="#DejaVuSans-6f"/>
      <use x="428.515625" xlink:href="#DejaVuSans-73"/>
     </g>
    </g>
   </g>
   <g id="matplotlib.axis_2">
    <g id="ytick_1">
     <g id="line2d_9">
      <defs>
       <path d="M 0 0 
L -3.5 0 
" id="mf4da603362" style="stroke:#000000;stroke-width:0.8;"/>
      </defs>
      <g>
       <use style="stroke:#000000;stroke-width:0.8;" x="60.175" xlink:href="#mf4da603362" y="373.681818"/>
      </g>
     </g>
     <g id="text_10">
      <!-- 0.000 -->
      <g transform="translate(24.546875 377.481037)scale(0.1 -0.1)">
       <defs>
        <path d="M 684 794 
L 1344 794 
L 1344 0 
L 684 0 
L 684 794 
z
" id="DejaVuSans-2e" transform="scale(0.015625)"/>
       </defs>
       <use xlink:href="#DejaVuSans-30"/>
       <use x="63.623047" xlink:href="#DejaVuSans-2e"/>
       <use x="95.410156" xlink:href="#DejaVuSans-30"/>
       <use x="159.033203" xlink:href="#DejaVuSans-30"/>
       <use x="222.65625" xlink:href="#DejaVuSans-30"/>
      </g>
     </g>
    </g>
    <g id="ytick_2">
     <g id="line2d_10">
      <g>
       <use style="stroke:#000000;stroke-width:0.8;" x="60.175" xlink:href="#mf4da603362" y="304.034952"/>
      </g>
     </g>
     <g id="text_11">
      <!-- 0.001 -->
      <g transform="translate(24.546875 307.83417)scale(0.1 -0.1)">
       <use xlink:href="#DejaVuSans-30"/>
       <use x="63.623047" xlink:href="#DejaVuSans-2e"/>
       <use x="95.410156" xlink:href="#DejaVuSans-30"/>
       <use x="159.033203" xlink:href="#DejaVuSans-30"/>
       <use x="222.65625" xlink:href="#DejaVuSans-31"/>
      </g>
     </g>
    </g>
    <g id="ytick_3">
     <g id="line2d_11">
      <g>
       <use style="stroke:#000000;stroke-width:0.8;" x="60.175" xlink:href="#mf4da603362" y="234.388085"/>
      </g>
     </g>
     <g id="text_12">
      <!-- 0.002 -->
      <g transform="translate(24.546875 238.187304)scale(0.1 -0.1)">
       <use xlink:href="#DejaVuSans-30"/>
       <use x="63.623047" xlink:href="#DejaVuSans-2e"/>
       <use x="95.410156" xlink:href="#DejaVuSans-30"/>
       <use x="159.033203" xlink:href="#DejaVuSans-30"/>
       <use x="222.65625" xlink:href="#DejaVuSans-32"/>
      </g>
     </g>
    </g>
    <g id="ytick_4">
     <g id="line2d_12">
      <g>
       <use style="stroke:#000000;stroke-width:0.8;" x="60.175" xlink:href="#mf4da603362" y="164.741219"/>
      </g>
     </g>
     <g id="text_13">
      <!-- 0.003 -->
      <g transform="translate(24.546875 168.540437)scale(0.1 -0.1)">
       <use xlink:href="#DejaVuSans-30"/>
       <use x="63.623047" xlink:href="#DejaVuSans-2e"/>
       <use x="95.410156" xlink:href="#DejaVuSans-30"/>
       <use x="159.033203" xlink:href="#DejaVuSans-30"/>
       <use x="222.65625" xlink:href="#DejaVuSans-33"/>
      </g>
     </g>
    </g>
    <g id="ytick_5">
     <g id="line2d_13">
      <g>
       <use style="stroke:#000000;stroke-width:0.8;" x="60.175" xlink:href="#mf4da603362" y="95.094352"/>
      </g>
     </g>
     <g id="text_14">
      <!-- 0.004 -->
      <g transform="translate(24.546875 98.893571)scale(0.1 -0.1)">
       <use xlink:href="#DejaVuSans-30"/>
       <use x="63.623047" xlink:href="#DejaVuSans-2e"/>
       <use x="95.410156" xlink:href="#DejaVuSans-30"/>
       <use x="159.033203" xlink:href="#DejaVuSans-30"/>
       <use x="222.65625" xlink:href="#DejaVuSans-34"/>
      </g>
     </g>
    </g>
    <g id="text_15">
     <!-- Density -->
     <g transform="translate(18.467187 227.508594)rotate(-90)scale(0.1 -0.1)">
      <defs>
       <path d="M 1259 4147 
L 1259 519 
L 2022 519 
Q 2988 519 3436 956 
Q 3884 1394 3884 2338 
Q 3884 3275 3436 3711 
Q 2988 4147 2022 4147 
L 1259 4147 
z
M 628 4666 
L 1925 4666 
Q 3281 4666 3915 4102 
Q 4550 3538 4550 2338 
Q 4550 1131 3912 565 
Q 3275 0 1925 0 
L 628 0 
L 628 4666 
z
" id="DejaVuSans-44" transform="scale(0.015625)"/>
       <path d="M 603 3500 
L 1178 3500 
L 1178 0 
L 603 0 
L 603 3500 
z
M 603 4863 
L 1178 4863 
L 1178 4134 
L 603 4134 
L 603 4863 
z
" id="DejaVuSans-69" transform="scale(0.015625)"/>
       <path d="M 1172 4494 
L 1172 3500 
L 2356 3500 
L 2356 3053 
L 1172 3053 
L 1172 1153 
Q 1172 725 1289 603 
Q 1406 481 1766 481 
L 2356 481 
L 2356 0 
L 1766 0 
Q 1100 0 847 248 
Q 594 497 594 1153 
L 594 3053 
L 172 3053 
L 172 3500 
L 594 3500 
L 594 4494 
L 1172 4494 
z
" id="DejaVuSans-74" transform="scale(0.015625)"/>
       <path d="M 2059 -325 
Q 1816 -950 1584 -1140 
Q 1353 -1331 966 -1331 
L 506 -1331 
L 506 -850 
L 844 -850 
Q 1081 -850 1212 -737 
Q 1344 -625 1503 -206 
L 1606 56 
L 191 3500 
L 800 3500 
L 1894 763 
L 2988 3500 
L 3597 3500 
L 2059 -325 
z
" id="DejaVuSans-79" transform="scale(0.015625)"/>
      </defs>
      <use xlink:href="#DejaVuSans-44"/>
      <use x="77.001953" xlink:href="#DejaVuSans-65"/>
      <use x="138.525391" xlink:href="#DejaVuSans-6e"/>
      <use x="201.904297" xlink:href="#DejaVuSans-73"/>
      <use x="254.003906" xlink:href="#DejaVuSans-69"/>
      <use x="281.787109" xlink:href="#DejaVuSans-74"/>
      <use x="320.996094" xlink:href="#DejaVuSans-79"/>
     </g>
    </g>
   </g>
   <g id="line2d_14">
    <path clip-path="url(#p1d09fe7707)" d="M 114.434584 373.681818 
L 164.425667 373.57779 
L 169.076001 373.315992 
L 172.563751 372.89996 
L 176.051501 372.245597 
L 180.120542 371.228854 
L 185.352167 369.693571 
L 188.258626 368.65193 
L 190.293146 367.714396 
L 192.037021 366.691809 
L 193.780897 365.40904 
L 195.524772 363.831886 
L 197.268647 361.959039 
L 199.303167 359.454777 
L 206.569313 350.097652 
L 208.313188 348.416146 
L 209.766417 347.318448 
L 211.219647 346.510311 
L 212.672876 345.979897 
L 214.126105 345.692838 
L 215.86998 345.591569 
L 221.392251 345.507767 
L 222.84548 345.116461 
L 224.008063 344.582893 
L 225.170647 343.82224 
L 226.33323 342.817667 
L 227.786459 341.215017 
L 229.239688 339.252702 
L 230.983563 336.514176 
L 237.087126 326.448212 
L 238.540355 324.690775 
L 239.702938 323.628568 
L 240.865522 322.909382 
L 241.737459 322.606625 
L 242.609397 322.509286 
L 243.481334 322.614618 
L 244.353272 322.915596 
L 245.515855 323.602136 
L 246.678438 324.582975 
L 248.131668 326.159545 
L 249.875543 328.445616 
L 252.491355 332.342794 
L 256.560397 338.451134 
L 258.594918 341.122952 
L 260.338793 343.080761 
L 262.082668 344.688531 
L 263.535897 345.750754 
L 264.989126 346.565512 
L 266.442355 347.147942 
L 267.895584 347.521925 
L 269.639459 347.740775 
L 271.67398 347.76749 
L 277.196251 347.674627 
L 278.940126 347.939532 
L 280.393355 348.362489 
L 281.846585 348.988093 
L 283.59046 349.999779 
L 285.62498 351.479744 
L 288.822085 354.152853 
L 292.309835 356.974336 
L 294.635001 358.580134 
L 297.54146 360.285317 
L 304.226314 364.049612 
L 308.876647 367.094651 
L 312.073751 369.052135 
L 314.108272 370.06307 
L 316.142793 370.818009 
L 317.886668 371.241722 
L 319.630543 371.464002 
L 321.665064 371.500366 
L 324.280876 371.292219 
L 331.256376 370.573799 
L 333.581543 370.616358 
L 336.197356 370.898699 
L 339.39446 371.490471 
L 346.660606 372.911952 
L 350.148356 373.318565 
L 354.217397 373.558535 
L 360.32096 373.665683 
L 382.410043 373.681818 
L 404.789773 373.681818 
L 404.789773 373.681818 
" style="fill:none;stroke:#1f77b4;stroke-linecap:square;stroke-width:1.5;"/>
   </g>
   <g id="line2d_15">
    <path clip-path="url(#p1d09fe7707)" d="M 104.478033 373.681818 
L 127.140879 373.578443 
L 128.38609 373.321766 
L 129.257738 372.909102 
L 130.004865 372.296629 
L 130.751992 371.353484 
L 131.499119 370.007573 
L 132.370767 367.893548 
L 133.491457 364.456399 
L 135.732837 357.32898 
L 136.604485 355.306005 
L 137.476133 353.812446 
L 139.34395 350.944175 
L 140.091077 349.158706 
L 140.838204 346.668171 
L 141.58533 343.386328 
L 142.456978 338.575275 
L 143.577668 330.980515 
L 144.82288 320.843228 
L 146.317133 306.575181 
L 148.932077 280.909165 
L 149.803725 274.493026 
L 150.426331 271.165716 
L 150.924415 269.374264 
L 151.297979 268.566796 
L 151.671542 268.222905 
L 151.920584 268.246185 
L 152.169627 268.463541 
L 152.54319 269.129451 
L 153.041274 270.568678 
L 153.788401 273.543766 
L 155.033613 278.613061 
L 155.531697 279.849231 
L 155.90526 280.228439 
L 156.154303 280.170653 
L 156.403345 279.8417 
L 156.776908 278.814508 
L 157.274993 276.439525 
L 157.897599 271.986302 
L 158.769247 263.795016 
L 160.2635 249.692688 
L 160.886106 245.849386 
L 161.259669 244.476233 
L 161.633233 243.872367 
L 161.882275 243.905256 
L 162.131317 244.282059 
L 162.50488 245.467168 
L 163.002965 248.109992 
L 163.625571 252.856546 
L 164.497219 261.457265 
L 166.240514 281.702226 
L 167.734768 298.164633 
L 168.730937 306.877914 
L 169.478064 311.77907 
L 170.225191 315.276617 
L 170.847796 317.276449 
L 171.594923 318.886058 
L 172.466571 320.174219 
L 173.836303 322.133836 
L 174.58343 323.605882 
L 175.330557 325.560283 
L 176.077684 328.106613 
L 176.949332 331.905324 
L 177.945501 337.272336 
L 181.432092 357.170555 
L 182.179219 359.860634 
L 182.801825 361.443596 
L 183.424431 362.47239 
L 184.047036 363.046788 
L 184.669642 363.309043 
L 186.537459 363.844397 
L 187.160065 364.370405 
L 187.907191 365.346318 
L 188.90336 367.092137 
L 190.646656 370.22099 
L 191.393783 371.164061 
L 192.016389 371.667734 
L 192.638994 371.90426 
L 193.2616 371.889592 
L 193.884206 371.659546 
L 194.755854 371.077976 
L 196.872713 369.533106 
L 197.61984 369.331023 
L 198.242445 369.386346 
L 198.989572 369.712862 
L 199.86122 370.368251 
L 202.725206 372.745244 
L 203.721375 373.207623 
L 204.842065 373.49179 
L 206.46084 373.643412 
L 210.196474 373.681545 
L 228.874644 373.681818 
L 228.874644 373.681818 
" style="fill:none;stroke:#ff7f0e;stroke-linecap:square;stroke-width:1.5;"/>
   </g>
   <g id="line2d_16">
    <path clip-path="url(#p1d09fe7707)" d="M 79.984437 373.681818 
L 93.956866 373.583995 
L 94.680826 373.327903 
L 95.187598 372.921512 
L 95.69437 372.217011 
L 96.273538 370.957859 
L 96.997499 368.751823 
L 98.952191 361.690538 
L 99.458963 359.043933 
L 99.965735 355.113399 
L 100.544903 348.498685 
L 101.341259 336.094475 
L 102.571991 316.728397 
L 103.151159 310.746107 
L 103.730327 307.030458 
L 104.961059 300.602455 
L 105.395435 296.554155 
L 105.902207 289.651665 
L 106.553771 277.164271 
L 107.567316 252.304735 
L 110.535552 173.02649 
L 111.259512 155.490243 
L 111.693888 149.434967 
L 111.983472 147.684243 
L 112.128264 147.472673 
L 112.273056 147.667664 
L 112.490244 148.639249 
L 112.852224 151.704978 
L 113.431392 158.975476 
L 114.227748 171.719422 
L 115.024104 188.149359 
L 116.9064 229.868045 
L 117.485568 237.146499 
L 117.992341 241.057158 
L 118.499113 243.436349 
L 119.802241 248.448916 
L 120.236617 251.60584 
L 120.743389 257.161374 
L 121.322557 266.171137 
L 122.336101 286.343778 
L 123.277249 303.261761 
L 123.856417 309.84042 
L 124.290793 312.600425 
L 124.652773 313.796051 
L 125.159545 314.629749 
L 125.593921 315.453178 
L 125.955901 316.754226 
L 126.390277 319.414913 
L 126.897049 324.119615 
L 127.693405 334.032721 
L 129.43091 356.160258 
L 130.227266 363.428754 
L 130.806434 366.992891 
L 131.24081 368.583694 
L 131.60279 369.182865 
L 131.819978 369.239706 
L 132.037166 369.089931 
L 132.399146 368.45431 
L 133.05071 366.608835 
L 133.702274 364.960113 
L 134.064254 364.566176 
L 134.281442 364.575216 
L 134.571026 364.88223 
L 134.933006 365.692241 
L 135.58457 367.91203 
L 136.598114 371.325696 
L 137.177282 372.540473 
L 137.684054 373.148757 
L 138.263222 373.488708 
L 138.987182 373.638172 
L 140.652291 373.681249 
L 152.308048 373.681818 
L 152.308048 373.681818 
" style="fill:none;stroke:#2ca02c;stroke-linecap:square;stroke-width:1.5;"/>
   </g>
   <g id="line2d_17">
    <path clip-path="url(#p1d09fe7707)" d="M 76.585227 373.681818 
L 85.590325 373.586441 
L 85.969487 373.361243 
L 86.301254 372.872371 
L 86.633021 371.877872 
L 86.964788 370.129795 
L 87.391345 366.585341 
L 89.050179 351.089559 
L 89.381945 347.111554 
L 89.713712 340.386376 
L 90.140269 326.833531 
L 91.609522 274.557626 
L 92.13087 266.237578 
L 92.936589 254.643053 
L 93.505332 242.391118 
L 94.074075 225.368752 
L 94.737609 198.27695 
L 95.685514 149.353565 
L 97.486534 48.974193 
L 97.8183 43.809065 
L 97.960486 43.318182 
L 98.007881 43.363672 
L 98.150067 44.089115 
L 98.387043 47.128502 
L 98.71881 54.932506 
L 99.192763 72.687966 
L 100.093272 118.468824 
L 100.709411 144.252118 
L 101.135968 154.406722 
L 101.467735 158.124148 
L 101.799502 159.667695 
L 102.131268 161.111539 
L 102.368245 163.277746 
L 102.652616 168.088323 
L 103.031778 179.000696 
L 103.553126 201.355798 
L 104.880193 261.611545 
L 105.30675 271.432109 
L 105.685912 275.592062 
L 106.586422 282.306223 
L 106.965584 289.431182 
L 107.534327 305.720758 
L 108.671813 338.744201 
L 109.524928 356.375179 
L 110.093671 364.445408 
L 110.472833 367.069702 
L 110.709809 367.477054 
L 110.851995 367.316242 
L 111.088971 366.521909 
L 112.036876 362.619514 
L 112.179062 362.664604 
L 112.368643 363.107394 
L 112.653014 364.481259 
L 114.074872 372.569492 
L 114.454034 373.257345 
L 114.833196 373.544948 
L 115.401939 373.663545 
L 117.39254 373.681817 
L 123.933084 373.681818 
L 123.933084 373.681818 
" style="fill:none;stroke:#d62728;stroke-linecap:square;stroke-width:1.5;"/>
   </g>
   <g id="patch_3">
    <path d="M 60.175 390.2 
L 60.175 26.8 
" style="fill:none;stroke:#000000;stroke-linecap:square;stroke-linejoin:miter;stroke-width:0.8;"/>
   </g>
   <g id="patch_4">
    <path d="M 421.2 390.2 
L 421.2 26.8 
" style="fill:none;stroke:#000000;stroke-linecap:square;stroke-linejoin:miter;stroke-width:0.8;"/>
   </g>
   <g id="patch_5">
    <path d="M 60.175 390.2 
L 421.2 390.2 
" style="fill:none;stroke:#000000;stroke-linecap:square;stroke-linejoin:miter;stroke-width:0.8;"/>
   </g>
   <g id="patch_6">
    <path d="M 60.175 26.8 
L 421.2 26.8 
" style="fill:none;stroke:#000000;stroke-linecap:square;stroke-linejoin:miter;stroke-width:0.8;"/>
   </g>
   <g id="text_16">
    <!-- Tiempo de procesado de camion -->
    <g transform="translate(142.850937 20.8)scale(0.12 -0.12)">
     <defs>
      <path d="M -19 4666 
L 3928 4666 
L 3928 4134 
L 2272 4134 
L 2272 0 
L 1638 0 
L 1638 4134 
L -19 4134 
L -19 4666 
z
" id="DejaVuSans-54" transform="scale(0.015625)"/>
      <path d="M 3328 2828 
Q 3544 3216 3844 3400 
Q 4144 3584 4550 3584 
Q 5097 3584 5394 3201 
Q 5691 2819 5691 2113 
L 5691 0 
L 5113 0 
L 5113 2094 
Q 5113 2597 4934 2840 
Q 4756 3084 4391 3084 
Q 3944 3084 3684 2787 
Q 3425 2491 3425 1978 
L 3425 0 
L 2847 0 
L 2847 2094 
Q 2847 2600 2669 2842 
Q 2491 3084 2119 3084 
Q 1678 3084 1418 2786 
Q 1159 2488 1159 1978 
L 1159 0 
L 581 0 
L 581 3500 
L 1159 3500 
L 1159 2956 
Q 1356 3278 1631 3431 
Q 1906 3584 2284 3584 
Q 2666 3584 2933 3390 
Q 3200 3197 3328 2828 
z
" id="DejaVuSans-6d" transform="scale(0.015625)"/>
      <path d="M 1159 525 
L 1159 -1331 
L 581 -1331 
L 581 3500 
L 1159 3500 
L 1159 2969 
Q 1341 3281 1617 3432 
Q 1894 3584 2278 3584 
Q 2916 3584 3314 3078 
Q 3713 2572 3713 1747 
Q 3713 922 3314 415 
Q 2916 -91 2278 -91 
Q 1894 -91 1617 61 
Q 1341 213 1159 525 
z
M 3116 1747 
Q 3116 2381 2855 2742 
Q 2594 3103 2138 3103 
Q 1681 3103 1420 2742 
Q 1159 2381 1159 1747 
Q 1159 1113 1420 752 
Q 1681 391 2138 391 
Q 2594 391 2855 752 
Q 3116 1113 3116 1747 
z
" id="DejaVuSans-70" transform="scale(0.015625)"/>
      <path id="DejaVuSans-20" transform="scale(0.015625)"/>
      <path d="M 2631 2963 
Q 2534 3019 2420 3045 
Q 2306 3072 2169 3072 
Q 1681 3072 1420 2755 
Q 1159 2438 1159 1844 
L 1159 0 
L 581 0 
L 581 3500 
L 1159 3500 
L 1159 2956 
Q 1341 3275 1631 3429 
Q 1922 3584 2338 3584 
Q 2397 3584 2469 3576 
Q 2541 3569 2628 3553 
L 2631 2963 
z
" id="DejaVuSans-72" transform="scale(0.015625)"/>
      <path d="M 3122 3366 
L 3122 2828 
Q 2878 2963 2633 3030 
Q 2388 3097 2138 3097 
Q 1578 3097 1268 2742 
Q 959 2388 959 1747 
Q 959 1106 1268 751 
Q 1578 397 2138 397 
Q 2388 397 2633 464 
Q 2878 531 3122 666 
L 3122 134 
Q 2881 22 2623 -34 
Q 2366 -91 2075 -91 
Q 1284 -91 818 406 
Q 353 903 353 1747 
Q 353 2603 823 3093 
Q 1294 3584 2113 3584 
Q 2378 3584 2631 3529 
Q 2884 3475 3122 3366 
z
" id="DejaVuSans-63" transform="scale(0.015625)"/>
      <path d="M 2194 1759 
Q 1497 1759 1228 1600 
Q 959 1441 959 1056 
Q 959 750 1161 570 
Q 1363 391 1709 391 
Q 2188 391 2477 730 
Q 2766 1069 2766 1631 
L 2766 1759 
L 2194 1759 
z
M 3341 1997 
L 3341 0 
L 2766 0 
L 2766 531 
Q 2569 213 2275 61 
Q 1981 -91 1556 -91 
Q 1019 -91 701 211 
Q 384 513 384 1019 
Q 384 1609 779 1909 
Q 1175 2209 1959 2209 
L 2766 2209 
L 2766 2266 
Q 2766 2663 2505 2880 
Q 2244 3097 1772 3097 
Q 1472 3097 1187 3025 
Q 903 2953 641 2809 
L 641 3341 
Q 956 3463 1253 3523 
Q 1550 3584 1831 3584 
Q 2591 3584 2966 3190 
Q 3341 2797 3341 1997 
z
" id="DejaVuSans-61" transform="scale(0.015625)"/>
     </defs>
     <use xlink:href="#DejaVuSans-54"/>
     <use x="57.958984" xlink:href="#DejaVuSans-69"/>
     <use x="85.742188" xlink:href="#DejaVuSans-65"/>
     <use x="147.265625" xlink:href="#DejaVuSans-6d"/>
     <use x="244.677734" xlink:href="#DejaVuSans-70"/>
     <use x="308.154297" xlink:href="#DejaVuSans-6f"/>
     <use x="369.335938" xlink:href="#DejaVuSans-20"/>
     <use x="401.123047" xlink:href="#DejaVuSans-64"/>
     <use x="464.599609" xlink:href="#DejaVuSans-65"/>
     <use x="526.123047" xlink:href="#DejaVuSans-20"/>
     <use x="557.910156" xlink:href="#DejaVuSans-70"/>
     <use x="621.386719" xlink:href="#DejaVuSans-72"/>
     <use x="660.25" xlink:href="#DejaVuSans-6f"/>
     <use x="721.431641" xlink:href="#DejaVuSans-63"/>
     <use x="776.412109" xlink:href="#DejaVuSans-65"/>
     <use x="837.935547" xlink:href="#DejaVuSans-73"/>
     <use x="890.035156" xlink:href="#DejaVuSans-61"/>
     <use x="951.314453" xlink:href="#DejaVuSans-64"/>
     <use x="1014.791016" xlink:href="#DejaVuSans-6f"/>
     <use x="1075.972656" xlink:href="#DejaVuSans-20"/>
     <use x="1107.759766" xlink:href="#DejaVuSans-64"/>
     <use x="1171.236328" xlink:href="#DejaVuSans-65"/>
     <use x="1232.759766" xlink:href="#DejaVuSans-20"/>
     <use x="1264.546875" xlink:href="#DejaVuSans-63"/>
     <use x="1319.527344" xlink:href="#DejaVuSans-61"/>
     <use x="1380.806641" xlink:href="#DejaVuSans-6d"/>
     <use x="1478.21875" xlink:href="#DejaVuSans-69"/>
     <use x="1506.001953" xlink:href="#DejaVuSans-6f"/>
     <use x="1567.183594" xlink:href="#DejaVuSans-6e"/>
    </g>
   </g>
   <g id="legend_1">
    <g id="patch_7">
     <path d="M 333.35 93.5125 
L 414.2 93.5125 
Q 416.2 93.5125 416.2 91.5125 
L 416.2 33.8 
Q 416.2 31.8 414.2 31.8 
L 333.35 31.8 
Q 331.35 31.8 331.35 33.8 
L 331.35 91.5125 
Q 331.35 93.5125 333.35 93.5125 
z
" style="fill:#ffffff;opacity:0.8;stroke:#cccccc;stroke-linejoin:miter;"/>
    </g>
    <g id="line2d_18">
     <path d="M 335.35 39.898438 
L 355.35 39.898438 
" style="fill:none;stroke:#1f77b4;stroke-linecap:square;stroke-width:1.5;"/>
    </g>
    <g id="line2d_19"/>
    <g id="text_17">
     <!-- 1 workers -->
     <g transform="translate(363.35 43.398438)scale(0.1 -0.1)">
      <defs>
       <path d="M 269 3500 
L 844 3500 
L 1563 769 
L 2278 3500 
L 2956 3500 
L 3675 769 
L 4391 3500 
L 4966 3500 
L 4050 0 
L 3372 0 
L 2619 2869 
L 1863 0 
L 1184 0 
L 269 3500 
z
" id="DejaVuSans-77" transform="scale(0.015625)"/>
       <path d="M 581 4863 
L 1159 4863 
L 1159 1991 
L 2875 3500 
L 3609 3500 
L 1753 1863 
L 3688 0 
L 2938 0 
L 1159 1709 
L 1159 0 
L 581 0 
L 581 4863 
z
" id="DejaVuSans-6b" transform="scale(0.015625)"/>
      </defs>
      <use xlink:href="#DejaVuSans-31"/>
      <use x="63.623047" xlink:href="#DejaVuSans-20"/>
      <use x="95.410156" xlink:href="#DejaVuSans-77"/>
      <use x="177.197266" xlink:href="#DejaVuSans-6f"/>
      <use x="238.378906" xlink:href="#DejaVuSans-72"/>
      <use x="279.492188" xlink:href="#DejaVuSans-6b"/>
      <use x="333.777344" xlink:href="#DejaVuSans-65"/>
      <use x="395.300781" xlink:href="#DejaVuSans-72"/>
      <use x="436.414062" xlink:href="#DejaVuSans-73"/>
     </g>
    </g>
    <g id="line2d_20">
     <path d="M 335.35 54.576563 
L 355.35 54.576563 
" style="fill:none;stroke:#ff7f0e;stroke-linecap:square;stroke-width:1.5;"/>
    </g>
    <g id="line2d_21"/>
    <g id="text_18">
     <!-- 2 workers -->
     <g transform="translate(363.35 58.076563)scale(0.1 -0.1)">
      <use xlink:href="#DejaVuSans-32"/>
      <use x="63.623047" xlink:href="#DejaVuSans-20"/>
      <use x="95.410156" xlink:href="#DejaVuSans-77"/>
      <use x="177.197266" xlink:href="#DejaVuSans-6f"/>
      <use x="238.378906" xlink:href="#DejaVuSans-72"/>
      <use x="279.492188" xlink:href="#DejaVuSans-6b"/>
      <use x="333.777344" xlink:href="#DejaVuSans-65"/>
      <use x="395.300781" xlink:href="#DejaVuSans-72"/>
      <use x="436.414062" xlink:href="#DejaVuSans-73"/>
     </g>
    </g>
    <g id="line2d_22">
     <path d="M 335.35 69.254688 
L 355.35 69.254688 
" style="fill:none;stroke:#2ca02c;stroke-linecap:square;stroke-width:1.5;"/>
    </g>
    <g id="line2d_23"/>
    <g id="text_19">
     <!-- 4 workers -->
     <g transform="translate(363.35 72.754688)scale(0.1 -0.1)">
      <use xlink:href="#DejaVuSans-34"/>
      <use x="63.623047" xlink:href="#DejaVuSans-20"/>
      <use x="95.410156" xlink:href="#DejaVuSans-77"/>
      <use x="177.197266" xlink:href="#DejaVuSans-6f"/>
      <use x="238.378906" xlink:href="#DejaVuSans-72"/>
      <use x="279.492188" xlink:href="#DejaVuSans-6b"/>
      <use x="333.777344" xlink:href="#DejaVuSans-65"/>
      <use x="395.300781" xlink:href="#DejaVuSans-72"/>
      <use x="436.414062" xlink:href="#DejaVuSans-73"/>
     </g>
    </g>
    <g id="line2d_24">
     <path d="M 335.35 83.932813 
L 355.35 83.932813 
" style="fill:none;stroke:#d62728;stroke-linecap:square;stroke-width:1.5;"/>
    </g>
    <g id="line2d_25"/>
    <g id="text_20">
     <!-- 6 workers -->
     <g transform="translate(363.35 87.432813)scale(0.1 -0.1)">
      <use xlink:href="#DejaVuSans-36"/>
      <use x="63.623047" xlink:href="#DejaVuSans-20"/>
      <use x="95.410156" xlink:href="#DejaVuSans-77"/>
      <use x="177.197266" xlink:href="#DejaVuSans-6f"/>
      <use x="238.378906" xlink:href="#DejaVuSans-72"/>
      <use x="279.492188" xlink:href="#DejaVuSans-6b"/>
      <use x="333.777344" xlink:href="#DejaVuSans-65"/>
      <use x="395.300781" xlink:href="#DejaVuSans-72"/>
      <use x="436.414062" xlink:href="#DejaVuSans-73"/>
     </g>
    </g>
   </g>
  </g>
 </g>
 <defs>
  <clipPath id="p1d09fe7707">
   <rect height="363.4" width="361.025" x="60.175" y="26.8"/>
  </clipPath>
 </defs>
</svg>
